<svg xmlns="http://www.w3.org/2000/svg" width="73.917" height="88.207" viewBox="0 0 73.917 88.207">
  <g id="Group_1384" data-name="Group 1384" transform="translate(-1022 -19728)">
    <g id="logo" transform="translate(1022 19728)">
      <path id="Exclusion_1" data-name="Exclusion 1" d="M66.459,88.207H7.444a6.864,6.864,0,0,1-5.015-2.259A9.438,9.438,0,0,1,.021,78.888L5.776,29.274c.278-4.521,3.539-8.062,7.422-8.062h6.478V18.369C19.677,8.24,27.427,0,36.952,0A16.658,16.658,0,0,1,49.213,5.423a18.866,18.866,0,0,1,5.016,12.947v2.843H60.7c3.885,0,7.147,3.541,7.427,8.062l.537,4.595,5.22,45.025a9.437,9.437,0,0,1-2.412,7.053A6.867,6.867,0,0,1,66.459,88.207ZM16.809,35.382a3.3,3.3,0,0,0,0,6.6A36.98,36.98,0,0,1,43.075,52.872,36.941,36.941,0,0,1,54.032,79.2a3.3,3.3,0,1,0,6.594,0A43.865,43.865,0,0,0,16.812,35.382Zm0,13.82a3.3,3.3,0,1,0,0,6.6,23.429,23.429,0,0,1,23.4,23.4,3.427,3.427,0,0,0,3.3,3.3,3.223,3.223,0,0,0,3.3-3.3,29.891,29.891,0,0,0-29.994-30ZM22.15,65.063A8.612,8.612,0,0,0,13.512,73.7a8.638,8.638,0,1,0,17.274.159A8.391,8.391,0,0,0,28.413,67.7a8.635,8.635,0,0,0-6.26-2.629ZM36.952,3.6c-7.54,0-13.674,6.626-13.674,14.769v2.843H50.623V18.369A15.274,15.274,0,0,0,46.575,7.881,13.092,13.092,0,0,0,36.952,3.6Z" transform="translate(0.007)" fill="#46a07e"/>
    </g>
  </g>
</svg>
